<?xml version="1.0" encoding="utf-8"?>
<!-- Generator: Adobe Illustrator 21.1.0, SVG Export Plug-In . SVG Version: 6.00 Build 0)  -->
<svg version="1.1" id="Layer_1" xmlns="http://www.w3.org/2000/svg" xmlns:xlink="http://www.w3.org/1999/xlink" x="0px" y="0px"
	 viewBox="0 0 127.4 65.6" style="enable-background:new 0 0 127.4 65.6;" xml:space="preserve">
<style type="text/css">
	.st0{fill:#95C13D;}
	.st1{fill:#FDEC0A;}
	.st2{fill:#F29220;}
	.st3{fill:#E21E26;}
	.st4{fill:#FDF59E;}
	.st5{fill:#F9BA16;}
	.st6{fill:#E75324;}
	.st7{fill:#1CBBEE;}
	.st8{fill:#85CFF3;}
	.st9{fill:#C7D53E;}
	.st10{fill:#FFFFFF;}
</style>
<path class="st0" d="M103.2,11.1L103.2,11.1c-0.1-2.8,2.1-5.1,4.9-5.2h0.1c2.7,0,5,2.2,5.1,4.9c0.1,2.8-2.1,5.1-4.9,5.2h-0.1
	C105.5,16,103.3,13.9,103.2,11.1 M108.2,8.5c-1.4,0-2.5,1.2-2.4,2.6c0,1.4,1.2,2.4,2.6,2.4s2.5-1.2,2.4-2.6
	C110.7,9.6,109.6,8.5,108.2,8.5C108.3,8.5,108.2,8.5,108.2,8.5"/>
<path class="st1" d="M89.2,7.4L89.2,7.4c-0.1-2.8,2.1-5.1,4.9-5.2c2.8-0.1,5.1,2.1,5.2,4.9s-2.1,5.1-4.9,5.2h-0.1
	C91.5,12.4,89.2,10.2,89.2,7.4 M94.2,4.8c-1.4,0-2.5,1.2-2.4,2.6c0,1.4,1.1,2.4,2.5,2.4c0,0,0,0,0.1,0c1.4,0,2.5-1.2,2.4-2.6
	C96.7,5.9,95.6,4.8,94.2,4.8L94.2,4.8"/>
<path class="st2" d="M82.8,20.6L82.8,20.6c-0.1-2.8,2.1-5.1,4.9-5.2c1.4,0,2.6,0.5,3.6,1.4c1,0.9,1.5,2.2,1.6,3.5s-0.5,2.6-1.4,3.6
	s-2.2,1.5-3.5,1.6h-0.1C85.1,25.5,82.9,23.3,82.8,20.6 M87.8,18c-1.4,0-2.5,1.2-2.4,2.6c0,1.4,1.2,2.5,2.6,2.4
	c0.7,0,1.3-0.3,1.7-0.8c0.5-0.5,0.7-1.1,0.7-1.8c0-0.7-0.3-1.3-0.8-1.7C89.1,18.2,88.5,18,87.8,18L87.8,18"/>
<path class="st3" d="M69.2,11.8L69.2,11.8c-0.1-2.8,2.1-5.1,4.9-5.2c1.4,0,2.6,0.5,3.6,1.4c1,0.9,1.5,2.2,1.6,3.5
	c0,1.4-0.5,2.6-1.4,3.6s-2.2,1.5-3.5,1.6h-0.1C71.5,16.7,69.2,14.5,69.2,11.8 M74.2,9.2c-1.4,0-2.5,1.2-2.4,2.6
	c0,1.4,1.2,2.4,2.6,2.4c0.7,0,1.3-0.3,1.7-0.8c0.5-0.5,0.7-1.1,0.7-1.8c0-0.7-0.3-1.3-0.8-1.7C75.5,9.4,74.9,9.2,74.2,9.2L74.2,9.2"
	/>
<rect x="100" y="5.2" transform="matrix(0.2704 -0.9627 0.9627 0.2704 65.4979 103.957)" class="st1" width="2.6" height="7.1"/>
<rect x="112.2" y="6.8" transform="matrix(0.9046 -0.4262 0.4262 0.9046 7.5949 50.0984)" class="st0" width="7.1" height="2.6"/>
<rect x="87.4" y="12.6" transform="matrix(0.4773 -0.8787 0.8787 0.4773 35.3356 87.1464)" class="st2" width="7.1" height="2.6"/>
<polygon class="st3" points="84.1,19.6 85.4,17.4 78.3,12.9 76.9,15.1 "/>
<path class="st4" d="M94.3,4.8C94.2,4.8,94.2,4.8,94.3,4.8c-0.7,0-1.4,0.3-1.8,0.8s-0.7,1-0.7,1.7c-0.1,0-0.3,0-0.4,0
	c-0.8,0-1.5-0.2-2.1-0.4c0.1-1.1,0.6-2.2,1.4-3c0.9-1,2.2-1.5,3.5-1.6c1,0,1.9,0.2,2.7,0.7c-0.2,0.9-0.6,1.7-1.2,2.3
	C95.2,5,94.8,4.8,94.3,4.8"/>
<path class="st5" d="M85.9,22c0.1,0.1,0.1,0.2,0.2,0.3c0.5,0.5,1.1,0.7,1.8,0.7c0.7,0,1.3-0.3,1.7-0.8c0.3-0.3,0.5-0.6,0.6-1
	c0.9,0.2,1.7,0.6,2.4,1.1c-0.2,0.6-0.6,1.2-1.1,1.7c-0.9,1-2.2,1.5-3.5,1.6h-0.1c-1.3,0-2.5-0.5-3.5-1.4c-0.1-0.1-0.1-0.1-0.2-0.2
	C84.6,23.2,85.2,22.5,85.9,22"/>
<path class="st6" d="M74.1,6.6c0.2,0,0.5,0,0.7,0c0,0.2,0,0.3,0,0.5c0,0.7-0.1,1.4-0.4,2.1c-0.1,0-0.1,0-0.2,0c0,0,0,0-0.1,0
	c-1.4,0-2.5,1.2-2.4,2.6h-1.3h1.3c0,0.1,0,0.3,0,0.4c-0.8,0.4-1.6,0.6-2.5,0.6c-0.1-0.3-0.1-0.6-0.1-1C69.1,9,71.3,6.7,74.1,6.6"/>
<path class="st7" d="M117.3,5.1L117.3,5.1c-0.1-2.8,2.1-5.1,4.9-5.2c1.4,0,2.6,0.5,3.6,1.4s1.5,2.2,1.6,3.5c0,1.4-0.5,2.6-1.4,3.6
	s-2.2,1.5-3.5,1.6h-0.1C119.6,10,117.4,7.8,117.3,5.1 M122.3,2.5c-1.4,0-2.5,1.2-2.4,2.6c0,1.4,1.1,2.4,2.5,2.4c0,0,0,0,0.1,0
	c0.7,0,1.3-0.3,1.7-0.8c0.5-0.5,0.7-1.1,0.7-1.8s-0.3-1.3-0.8-1.7C123.6,2.7,123,2.5,122.3,2.5C122.4,2.5,122.3,2.5,122.3,2.5"/>
<path class="st8" d="M124.9,4.9c0-0.7-0.3-1.3-0.8-1.7s-1.1-0.7-1.7-0.7c0,0,0,0-0.1,0c-0.2,0-0.3,0-0.5,0.1
	c-0.5-0.7-0.8-1.5-0.9-2.4c0.4-0.1,0.8-0.2,1.3-0.2c1.3,0,2.6,0.5,3.6,1.4s1.5,2.2,1.6,3.5c0,0.1,0,0.2,0,0.3
	c-0.3,0-0.5,0.1-0.8,0.1C126,5.2,125.4,5.1,124.9,4.9"/>
<path class="st9" d="M108.4,16L108.4,16c-1.4,0-2.6-0.5-3.6-1.4c-0.2-0.2-0.3-0.3-0.4-0.5c0.5-0.7,1.1-1.3,1.9-1.8
	c0.1,0.1,0.2,0.3,0.3,0.4c0.5,0.5,1.1,0.7,1.8,0.7c1.1,0,2-0.7,2.3-1.7c0.9,0.2,1.6,0.7,2.3,1.2C112.1,14.8,110.4,16,108.4,16"/>
<polygon class="st2" points="82.3,15.4 85.4,17.4 84.1,19.6 80.1,17.1 "/>
<polygon class="st1" points="90.2,12.5 91.5,10.2 93.7,11.4 91.7,15.1 "/>
<path class="st0" d="M102.2,7.6l2.9,0.8l-0.7,2.5l-4.2-1.2C100.8,9,101.6,8.2,102.2,7.6"/>
<polygon class="st7" points="114.3,7.4 118.4,5.4 119.5,7.8 116.9,9 "/>
<path class="st10" d="M0,41.3C0,33.9,4.2,28,12.3,28c2.5,0,5,0.7,6.7,2.8v-2.6h7.4v24.1c0,9.5-6.5,13.3-13,13.3
	c-6.3,0-12.6-3.8-12.6-10h7.8c0,1.6,2.2,2.8,4.6,2.8c2.7,0,5.6-1.5,5.8-6v-1.2c-1.7,1.9-4.1,2.6-6.6,2.6C4.2,53.8,0,48.4,0,41.3
	 M7.5,41.4c0,3.6,2.9,5.3,5.7,5.3c2.9,0,5.8-1.9,5.8-5.4c0-3.4-2.6-6.2-5.8-6.2C9.4,35.2,7.5,38.4,7.5,41.4"/>
<path class="st10" d="M38.6,53.9h-7.4V28.3h6.7l0.3,1.7c1.7-1.6,3.5-2.2,5.6-2.2c0.9,0,1.9,0.1,2.9,0.4l-0.1,7
	c-0.8-0.2-1.7-0.4-2.5-0.4c-2.7,0-5.4,1.5-5.4,4.9L38.6,53.9L38.6,53.9z"/>
<path class="st10" d="M54.5,18.4c2.3,0,4.6,1.4,4.6,4.4c0,2.7-2.1,4.1-4.3,4.2c-2.3,0-4.6-1.3-4.6-4.2
	C50.2,19.9,52.3,18.4,54.5,18.4 M50.9,53.9h7.6V28.3h-7.6V53.9z"/>
<path class="st10" d="M77.9,28c-0.6,0-1.2,0-1.8,0.1l-3.2,8.8c1.1-1.1,2.5-1.8,4.2-1.8c3.8,0,5.8,3.2,5.7,6.2c0,3.1-1.9,6.1-5.7,6.1
	c-3.2,0-5.8-2.8-5.8-6.2c0-0.2,0-0.3,0-0.5v-9.9l0,0v-2.6h-7.4v33.1h7.4v-9.8c1.7,1.9,4.1,2.8,6.6,2.8c8.3,0,12.3-5.8,12.4-12.8
	C90.2,34.5,86,28,77.9,28"/>
<path class="st10" d="M107.8,28c-0.6,0-1.2,0-1.8,0.1l-3.3,8.9c1.1-1.2,2.5-1.9,4.2-1.9c3.8,0,5.8,3.2,5.7,6.2
	c0,3.1-1.9,6.1-5.7,6.1c-3.2,0-5.7-2.7-5.8-6.1l0,0v-13h-7.4v33.1h7.4v-9.8c1.7,1.9,4.1,2.8,6.6,2.8c8.3,0,12.3-5.8,12.4-12.8
	C120.1,34.5,115.9,28,107.8,28"/>
</svg>
